<?xml version="1.0" standalone="no"?>
<!DOCTYPE svg PUBLIC "-//W3C//DTD SVG 20010904//EN"
 "http://www.w3.org/TR/2001/REC-SVG-20010904/DTD/svg10.dtd">
<svg version="1.0" xmlns="http://www.w3.org/2000/svg"
 width="342.000000pt" height="78.000000pt" viewBox="0 0 342.000000 78.000000"
 preserveAspectRatio="xMidYMid meet">

<g transform="translate(0.000000,78.000000) scale(0.100000,-0.100000)"
fill="#FFFFFF" stroke="none">
<path d="M220 685 l0 -85 -100 0 -100 0 0 -210 0 -210 100 0 100 0 0 -85 0
-85 288 0 288 0 80 90 c43 49 84 89 89 89 6 0 46 -41 89 -90 l80 -89 288 0
288 0 0 380 0 380 -745 0 -745 0 0 -85z m0 -295 l0 -130 -60 0 -60 0 0 130 0
130 60 0 60 0 0 -130z"/>
<path d="M1720 390 l0 -380 288 0 288 0 80 90 c43 49 84 89 89 89 6 0 46 -41
89 -90 l80 -89 288 0 288 0 0 85 0 85 95 0 95 0 0 210 0 210 -95 0 -95 0 0 85
0 85 -745 0 -745 0 0 -380z m1600 0 l0 -130 -55 0 -55 0 0 130 0 130 55 0 55
0 0 -130z"/>
</g>
</svg>
